<?xml version="1.0" encoding="iso-8859-1"?>
<!-- Generator: Adobe Illustrator 22.0.1, SVG Export Plug-In . SVG Version: 6.00 Build 0)  -->
<svg version="1.1" id="Layer_1" xmlns="http://www.w3.org/2000/svg" xmlns:xlink="http://www.w3.org/1999/xlink" x="0px" y="0px"
	 viewBox="0 0 100.25 100.25" style="enable-background:new 0 0 100.25 100.25;" xml:space="preserve">
<g>
	<path d="M85.5,18.25h-70c-0.829,0-1.5,0.671-1.5,1.5v60c0,0.828,0.671,1.5,1.5,1.5h70c0.828,0,1.5-0.672,1.5-1.5v-60
		C87,18.921,86.328,18.25,85.5,18.25z M42,69.25v9H31v-9H42z M45,69.25h11v9H45V69.25z M59,69.25h11v9H59V69.25z M17,66.25v-33h67
		v33H17z M59,30.25v-9h11v9H59z M56,30.25H45v-9h11V30.25z M42,30.25H31v-9h11V30.25z M84,30.25H73v-9h11V30.25z M28,21.25v9H17v-9
		H28z M17,69.25h11v9H17V69.25z M73,78.25v-9h11v9H73z"/>
	<path d="M43.5,39.25h-20c-0.829,0-1.5,0.671-1.5,1.5s0.671,1.5,1.5,1.5h20c0.829,0,1.5-0.671,1.5-1.5S44.329,39.25,43.5,39.25z"/>
</g>
</svg>
